# AST/ASF file generated using VICON BodyLanguage
# -----------------------------------------------
:version 1.10
:name VICON
:units
  mass 1.0
  length 0.45
  angle deg
:documentation
   .ast/.asf automatically generated from VICON data using
   VICON BodyBuilder and BodyLanguage model FoxedUp or BRILLIANT.MOD
:root
   order TX TY TZ RX RY RZ
   axis XYZ
   position 0 0 0  
   orientation 0 0 0 
:bonedata
  begin
     id 1 
     name lhipjoint
     direction 0.693937 -0.600361 0.397515 
     length 2.37164 
     axis 0 0 0  XYZ
  end
  begin
     id 2 
     name lfemur
     direction 0.34202 -0.939693 0  
     length 6.18497  
     axis 0 0 20  XYZ
    dof rx ry rz
    limits (-160.0 20.0)
           (-70.0 70.0)
           (-60.0 70.0)
  end
  begin
     id 3 
     name ltibia
     direction 0.34202 -0.939693 0   
     length 6.91601   
     axis 0 0 20   XYZ
    dof rx
    limits (-10.0 170.0)
  end
  begin
     id 4 
     name lfoot
     direction 0.0978718 -0.2689 0.958182   
     length 1.81453   
     axis -90 7.62852e-016 20   XYZ
    dof rx rz
    limits (-45.0 90.0)
           (-70.0 20.0)
  end
  begin
     id 5 
     name ltoes
     direction 1.53569e-011 -4.21951e-011 1   
     length 0.912052   
     axis -90 7.62852e-016 20   XYZ
    dof rx
    limits (-90.0 20.0)
  end
  begin
     id 6 
     name rhipjoint
     direction -0.643996 -0.637876 0.422354   
     length 2.23216  
     axis 0 0 0  XYZ 
  end
  begin
     id 7 
     name rfemur
     direction -0.34202 -0.939693 0   
     length 6.15404   
     axis 0 0 -20   XYZ
    dof rx ry rz
    limits (-160.0 20.0)
           (-70.0 70.0)
           (-70.0 60.0)
  end
  begin
     id 8 
     name rtibia
     direction -0.34202 -0.939693 0   
     length 6.86744   
     axis 0 0 -20   XYZ
    dof rx
    limits (-10.0 170.0)
 end
 begin
     id 9 
     name rfoot
     direction -0.118701 -0.326127 0.937844   
     length 1.9243  
     axis -90 -7.62852e-016 -20   XYZ
    dof rx rz
    limits (-45.0 90.0)
           (-20.0 70.0)
  end
  begin
     id 10 
     name rtoes
     direction -1.5356e-011 -4.2181e-011 1   
     length 0.958865   
     axis -90 -7.62852e-016 -20   XYZ
    dof rx
    limits (-90.0 20.0)
  end
  begin
     id 11 
     name lowerback
     direction 0.0310826 0.968686 -0.246334   
     length 2.00021   
     axis 0 0 0   XYZ
    dof rx ry rz
    limits (-20.0 45.0)
           (-30.0 30.0)
           (-30.0 30.0)
  end
  begin
     id 12 
     name upperback
     direction -0.0152834 0.999474 -0.0286152   
     length 2.03728   
     axis 0 0 0   XYZ
    dof rx ry rz
    limits (-20.0 45.0)
           (-30.0 30.0)
           (-30.0 30.0)
  end
  begin
     id 13 
     name thorax
     direction -0.0323701 0.996236 0.0804149   
     length 2.16   
     axis 0 0 0   XYZ
    dof rx ry rz
    limits (-20.0 45.0)
           (-30.0 30.0)
           (-30.0 30.0)
  end
  begin
     id 14 
     name lowerneck
     direction 0.0307935 0.982251 0.185027   
     length 1.43558   
     axis 0 0 0   XYZ
    dof rx ry rz
    limits (-20.0 45.0)
           (-30.0 30.0)
           (-30.0 30.0)
  end
  begin
     id 15 
     name upperneck
     direction -0.0927153 0.994775 0.0427454   
     length 1.44603   
     axis 0 0 0   XYZ
    dof rx ry rz
    limits (-20.0 45.0)
           (-30.0 30.0)
           (-30.0 30.0)
  end
  begin
     id 16
     name head
     direction -0.0341265 0.999406 -0.00472033  
     length 1.45931  
     axis 0 0 0   XYZ
    dof rx ry rz
    limits (-20.0 45.0)
           (-30.0 30.0)
           (-30.0 30.0)
  end
  begin
     id 17 
     name lclavicle
     direction 0.820755 0.555306 -0.134151  
     length 2.66075  
     axis 0 0 0   XYZ
    dof ry rz
    limits (-20.0 10.0)
           (0.0 20.0)
  end
  begin
     id 18 
     name lhumerus
     direction 1 -4.48971e-011 5.24853e-027   
     length 5.0546   
     axis -180 -30 -90   XYZ
    dof rx ry rz
    limits (-60.0 90.0)
           (-90.0 90.0)
           (-90.0 90.0)
  end
  begin
     id 19
     name lradius
     direction 1 -4.48971e-011 2.76575e-028   
     length 3.39013   
     axis -180 -30 -90   XYZ
    dof rx
    limits (-10.0 170.0)
  end
  begin
     id 20
     name lwrist
     direction 1 -4.48939e-011 -2.27826e-027   
     length 1.69507   
     axis 2.17013e-015 90 90   XYZ
    dof ry
    limits (-180.0 0.0)
 end
  begin
     id 21 
     name lhand
     direction 1 -4.49009e-011 -4.55652e-027   
     length 0.572425   
     axis 2.90745e-015 90 90   XYZ
    dof rx rz
    limits (-90.0 90.0)
           (-45.0 45.0)
  end
  begin
     id 22 
     name lfingers
     direction 1 -4.48955e-011 -9.11303e-027   
     length 0.461504   
     axis 5.81489e-015 90 90   XYZ
    dof rx
    limits (0.0 90.0)
  end
  begin
     id 23
     name lthumb
     direction 0.707107 -6.34929e-011 0.707107   
     length 0.66263   
     axis -90 45 2.85299e-015   XYZ
    dof rx rz
    limits (-45.0 45.0)
           (-45.0 45.0)
  end
  begin
     id 24 
     name rclavicle
     direction -0.754477 0.632921 -0.173712   
     length 2.73081  
     axis 0 0 0   XYZ 
    dof ry rz
    limits (-10.0 20.0)
           (-20.0 0.0)
  end
  begin
     id 25 
     name rhumerus
     direction -1 -4.48969e-011 5.1496e-027  
     length 5.0701   
     axis -180 30 90   XYZ
    dof rx ry rz
    limits (-90.0 60.0)
           (-90.0 90.0)
           (-90.0 90.0)
  end
  begin
     id 26 
     name rradius
     direction -1 -4.48967e-011 -7.15624e-028   
     length 3.14957   
     axis -180 30 90   XYZ
    dof rx
    limits (-10.0 170.0)
  end
  begin
     id 27 
     name rwrist
     direction -1 -4.48938e-011 -2.27826e-027   
     length 1.57479   
     axis 2.17013e-015 -90 -90   XYZ
    dof ry
    limits (-180.0 0.0)
  end
  begin
     id 28
     name rhand
     direction -1 -4.49008e-011 -4.55652e-027   
     length 0.718191   
     axis 2.90745e-015 -90 -90   XYZ
    dof rx rz
    limits (-90.0 90.0)
           (-45.0 45.0)
  end
  begin
     id 29
     name rfingers
     direction -1 -4.48953e-011 -9.11303e-027   
     length 0.579024   
     axis 5.81489e-015 -90 -90   XYZ
    dof rx
    limits (0.0 90.0)
  end
  begin
     id 30
     name rthumb
     direction -0.707107 -6.34937e-011 0.707107   
     length 0.831366   
     axis -90 -45 -2.85299e-015   XYZ
    dof rx rz
    limits (-45.0 45.0)
           (-45.0 45.0)
  end
:hierarchy
  begin
    root lhipjoint rhipjoint lowerback
    lhipjoint lfemur
    lfemur ltibia
    ltibia lfoot
    lfoot ltoes
    rhipjoint rfemur
    rfemur rtibia
    rtibia rfoot
    rfoot rtoes
    lowerback upperback
    upperback thorax
    thorax lowerneck lclavicle rclavicle
    lowerneck upperneck
    upperneck head
    lclavicle lhumerus
    lhumerus lradius
    lradius lwrist
    lwrist lhand lthumb
    lhand lfingers
    rclavicle rhumerus
    rhumerus rradius
    rradius rwrist
    rwrist rhand rthumb
    rhand rfingers
  end

#!OML:ASF H:\Male1\Project 1\Capture day 1\Session 1\Male1.ASF
:FULLY-SPECIFIED
:DEGREES
16
root 8.01223 15.571 2.06784 178.143 2.14594 -177.522
lowerback 5.48899 1.65676 3.05182
upperback 1.89292 2.45256 -0.838378
thorax -0.96265 1.27556 -2.72371
lowerneck -1.19248 8.19016 10.3005
upperneck -2.93269 10.7153 -5.20923
head 0.164567 5.25217 -3.32515
rclavicle -3.20292e-014 -6.75868e-015
rhumerus -36.6988 -1.37839 -87.2747
rradius 33.8576
rwrist -18.7395
rhand -18.1839 0.424141
rfingers 7.12502
rthumb 8.09282 -29.4009
lclavicle -3.20292e-014 -6.75868e-015
lhumerus -31.4435 1.16622 85.5256
lradius 29.0389
lwrist -2.62524
lhand -20.2484 10.5886
lfingers 7.12502
lthumb 6.09999 40.4808
rfemur -0.974597 18.7425 26.4622
rtibia 18.5803
rfoot -22.0804 -32.047
rtoes -26.1023
lfemur -3.00492 -19.7505 -19.637
ltibia 23.5472
lfoot -21.3871 25.0828
ltoes -6.64589
17
root 8.01215 15.5709 2.06681 178.134 2.10778 -177.645
lowerback 5.48757 1.64879 2.93301
upperback 1.90534 2.43605 -0.878295
thorax -0.953532 1.26795 -2.69693
lowerneck -1.22716 8.16865 10.2835
upperneck -2.89577 10.6836 -5.15801
head 0.175706 5.23652 -3.30333
rclavicle -1.2921e-015 6.75868e-015
rhumerus -36.6803 -1.35882 -87.2618
rradius 33.881
rwrist -18.8054
rhand -18.2571 0.387234
rfingers 7.12502
rthumb 8.02219 -29.4405
lclavicle -1.2921e-015 6.75868e-015
lhumerus -31.4239 1.05938 85.5458
lradius 29.0376
lwrist -2.57074
lhand -20.1998 10.5434
lfingers 7.12502
lthumb 6.14688 40.4343
rfemur -1.05805 18.6871 26.3218
rtibia 18.775
rfoot -22.4035 -31.9247
rtoes -25.6246
lfemur -2.92007 -19.7439 -19.7758
ltibia 23.3871
lfoot -21.2157 25.1091
ltoes -6.89381
18
root 8.01283 15.5705 2.0647 178.1 2.02819 -177.93
lowerback 5.48981 1.63523 2.64042
upperback 1.92639 2.4037 -0.96129
thorax -0.944023 1.25277 -2.61609
lowerneck -1.26458 8.14244 10.2754
upperneck -2.84707 10.6457 -5.11484
head 0.191664 5.21807 -3.28562
rclavicle -3.09607e-014 -1.35174e-014
rhumerus -36.6615 -1.38749 -87.2306
rradius 33.8907
rwrist -18.8036
rhand -18.2882 0.351831
rfingers 7.12502
rthumb 7.99223 -29.4771
lclavicle -3.09607e-014 -1.35174e-014
lhumerus -31.4055 0.954414 85.5646
lradius 29.0287
lwrist -2.53415
lhand -20.1666 10.483
lfingers 7.12502
lthumb 6.17894 40.3729
rfemur -1.18359 18.6034 26.0133
rtibia 19.1109
rfoot -22.6391 -31.8591
rtoes -25.5826
lfemur -2.75365 -19.7484 -20.1022
ltibia 23.1076
lfoot -20.9687 25.1342
ltoes -7.18947
19
root 8.01401 15.5697 2.06206 178.05 1.9258 -178.316
lowerback 5.49962 1.61512 2.23624
upperback 1.9517 2.35796 -1.06799
thorax -0.938467 1.23116 -2.49645
lowerneck -1.29887 8.11394 10.2725
upperneck -2.79011 10.6053 -5.08262
head 0.210564 5.19883 -3.27257
rclavicle 5.69021e-015 -2.78299e-015
rhumerus -36.6433 -1.44314 -87.1859
rradius 33.8844
rwrist -18.7414
rhand -18.2696 0.332967
rfingers 7.12502
rthumb 8.0101 -29.4952
lclavicle 5.69021e-015 -2.78299e-015
lhumerus -31.3966 0.87473 85.579
lradius 29.0175
lwrist -2.52851
lhand -20.1493 10.4302
lfingers 7.12502
lthumb 6.19566 40.3196
rfemur -1.31945 18.5089 25.6039
rtibia 19.503
rfoot -22.7441 -31.8599
rtoes -25.946
lfemur -2.54417 -19.7672 -20.5443
ltibia 22.7744
lfoot -20.6984 25.1598
ltoes -7.49553
20
root 8.01504 15.5684 2.06003 178.01 1.8465 -178.638
lowerback 5.51517 1.59496 1.89172
upperback 1.96983 2.31553 -1.15709
thorax -0.941121 1.21098 -2.39266
lowerneck -1.33358 8.08431 10.2765
upperneck -2.7207 10.5637 -5.06088
head 0.234533 5.17947 -3.26401
rclavicle -2.78299e-015 1.47101e-014
rhumerus -36.6299 -1.49544 -87.1446
rradius 33.8715
rwrist -18.6542
rhand -18.2189 0.335684
rfingers 7.12502
rthumb 8.05903 -29.4907
lclavicle -2.78299e-015 1.47101e-014
lhumerus -31.3954 0.829033 85.5857
lradius 29.0055
lwrist -2.54932
lhand -20.1475 10.4072
lfingers 7.12502
lthumb 6.19742 40.2965
rfemur -1.47908 18.4405 25.2635
rtibia 19.8965
rfoot -22.6431 -31.9543
rtoes -26.7454
lfemur -2.33718 -19.8063 -20.9172
ltibia 22.4328
lfoot -20.4494 25.2105
ltoes -7.75647
21
root 8.01628 15.5664 2.05897 177.975 1.7921 -178.931
lowerback 5.54518 1.57585 1.56694
upperback 1.98338 2.27593 -1.23845
thorax -0.955513 1.1921 -2.29272
lowerneck -1.37601 8.05456 10.2949
upperneck -2.63489 10.5214 -5.05378
head 0.266854 5.16015 -3.26222
rclavicle 2.21645e-014 -5.1684e-015
rhumerus -36.6219 -1.53184 -87.119
rradius 33.8602
rwrist -18.5659
rhand -18.1592 0.355874
rfingers 7.12502
rthumb 8.11664 -29.4682
lclavicle 2.21645e-014 -5.1684e-015
lhumerus -31.3956 0.815177 85.5815
lradius 28.9921
lwrist -2.58091
lhand -20.1585 10.417
lfingers 7.12502
lthumb 6.1868 40.3066
rfemur -1.63471 18.4147 24.9563
rtibia 20.2465
rfoot -22.5755 -32.0539
rtoes -27.3669
lfemur -2.14803 -19.861 -21.2579
ltibia 22.1211
lfoot -20.241 25.2795
ltoes -7.92057
22
root 8.01755 15.5644 2.05896 177.95 1.7725 -179.161
lowerback 5.58196 1.56102 1.30204
upperback 1.9915 2.24486 -1.30371
thorax -0.976808 1.1773 -2.21061
lowerneck -1.43636 8.0223 10.3188
upperneck -2.52578 10.4743 -5.05075
head 0.310019 5.13883 -3.26157
rclavicle -7.05686e-015 9.54166e-015
rhumerus -36.6151 -1.56095 -87.1064
rradius 33.8512
rwrist -18.4862
rhand -18.0987 0.392716
rfingers 7.12502
rthumb 8.1751 -29.4291
lclavicle -7.05686e-015 9.54166e-015
lhumerus -31.3924 0.816247 85.5702
lradius 28.9784
lwrist -2.60227
lhand -20.1707 10.4585
lfingers 7.12502
lthumb 6.17497 40.3485
rfemur -1.7726 18.4388 24.7162
rtibia 20.5229
rfoot -22.7528 -32.0644
rtoes -27.3059
lfemur -1.99968 -19.921 -21.5242
ltibia 21.8688
lfoot -20.0924 25.3585
ltoes -7.94572
23
root 8.01862 15.5636 2.05906 177.933 1.76977 -179.357
lowerback 5.61443 1.54866 1.07423
upperback 1.99777 2.21869 -1.36214
thorax -0.996005 1.16496 -2.14242
lowerneck -1.52844 7.97955 10.3306
upperneck -2.37343 10.4107 -5.02818
head 0.369449 5.11013 -3.2503
rclavicle 2.08724e-014 -2.50469e-014
rhumerus -36.6076 -1.60531 -87.0967
rradius 33.8386
rwrist -18.4067
rhand -18.0418 0.443093
rfingers 7.12502
rthumb 8.22997 -29.3766
lclavicle 2.08724e-014 -2.50469e-014
lhumerus -31.3856 0.807739 85.5568
lradius 28.967
lwrist -2.59213
lhand -20.1666 10.5265
lfingers 7.12502
lthumb 6.17896 40.4163
rfemur -1.87492 18.4594 24.5079
rtibia 20.7304
rfoot -23.0672 -31.9795
rtoes -26.8333
lfemur -1.88381 -19.9823 -21.7524
ltibia 21.673
lfoot -19.9894 25.4391
ltoes -7.88161
24
root 8.01925 15.5641 2.05892 177.926 1.77874 -179.499
lowerback 5.63496 1.53928 0.9105
upperback 1.99982 2.19905 -1.40771
thorax -1.01053 1.15569 -2.09697
lowerneck -1.6658 7.91665 10.3139
upperneck -2.15213 10.3171 -4.96165
head 0.45228 5.06776 -3.21667
rclavicle -6.95746e-016 -3.97569e-016
rhumerus -36.6031 -1.67096 -87.0814
rradius 33.8205
rwrist -18.3226
rhand -17.99 0.493892
rfingers 7.12502
rthumb 8.28002 -29.3238
lclavicle -6.95746e-016 -3.97569e-016
lhumerus -31.3805 0.786354 85.5428
lradius 28.9611
lwrist -2.55526
lhand -20.1364 10.6031
lfingers 7.12502
lthumb 6.2081 40.4921
rfemur -1.93776 18.4584 24.3519
rtibia 20.8632
rfoot -23.4598 -31.8047
rtoes -26.0695
lfemur -1.80776 -20.0262 -21.916
ltibia 21.5412
lfoot -19.9319 25.4994
ltoes -7.7531
25
root 8.01917 15.5653 2.05853 177.936 1.8003 -179.539
lowerback 5.63771 1.53448 0.861814
upperback 1.9951 2.19016 -1.4274
thorax -1.01834 1.15127 -2.08958
lowerneck -1.85672 7.8222 10.2567
upperneck -1.84838 10.1775 -4.83736
head 0.561622 5.00412 -3.1542
rclavicle 1.31695e-014 -1.59028e-014
rhumerus -36.6046 -1.74062 -87.0611
rradius 33.8018
rwrist -18.2506
rhand -17.9503 0.525296
rfingers 7.12502
rthumb 8.31826 -29.2909
lclavicle 1.31695e-014 -1.59028e-014
lhumerus -31.3826 0.756055 85.5319
lradius 28.9636
lwrist -2.51483
lhand -20.089 10.6768
lfingers 7.12502
lthumb 6.25389 40.5645
rfemur -1.97589 18.4446 24.2963
rtibia 20.9284
rfoot -23.8805 -31.5774
rtoes -25.1185
lfemur -1.77812 -20.0358 -21.9605
ltibia 21.4714
lfoot -19.9081 25.5273
ltoes -7.61602
26
root 8.01844 15.5671 2.05793 177.961 1.831 -179.472
lowerback 5.62449 1.53398 0.934512
upperback 1.98384 2.19194 -1.42
thorax -1.02004 1.1516 -2.12262
lowerneck -2.10365 7.68737 10.1563
upperneck -1.46048 9.97969 -4.65441
head 0.697583 4.91318 -3.06304
rclavicle -8.84592e-015 3.57812e-015
rhumerus -36.6106 -1.80573 -87.0386
rradius 33.782
rwrist -18.1905
rhand -17.9391 0.525045
rfingers 7.12502
rthumb 8.32913 -29.2907
lclavicle -8.84592e-015 3.57812e-015
lhumerus -31.3938 0.715275 85.5289
lradius 28.9723
lwrist -2.48735
lhand -20.0518 10.7339
lfingers 7.12502
lthumb 6.28981 40.6205
rfemur -1.99512 18.4129 24.3504
rtibia 20.9356
rfoot -24.1583 -31.376
rtoes -24.4043
lfemur -1.79316 -20.0063 -21.8794
ltibia 21.462
lfoot -19.9025 25.5266
ltoes -7.54094
27
root 8.01752 15.5685 2.05739 177.985 1.8618 -179.36
lowerback 5.61114 1.53413 1.0557
upperback 1.96929 2.19662 -1.3994
thorax -1.02362 1.15309 -2.16952
lowerneck -2.40377 7.50841 10.0039
upperneck -0.989673 9.71866 -4.40672
head 0.858571 4.79258 -2.94075
rclavicle 1.81888e-014 0
rhumerus -36.6199 -1.85364 -87.0169
rradius 33.7591
rwrist -18.1402
rhand -17.9541 0.496434
rfingers 7.12502
rthumb 8.31461 -29.3199
lclavicle 1.81888e-014 0
lhumerus -31.4144 0.681817 85.5313
lradius 28.9809
lwrist -2.4903
lhand -20.0484 10.7518
lfingers 7.12502
lthumb 6.29306 40.6384
rfemur -2.00811 18.3645 24.4546
rtibia 20.9212
rfoot -24.1861 -31.2808
rtoes -24.262
lfemur -1.82539 -19.9421 -21.7441
ltibia 21.4834
lfoot -19.8966 25.4994
ltoes -7.53477
28
root 8.01725 15.5683 2.05731 177.987 1.88033 -179.304
lowerback 5.62051 1.53067 1.1059
upperback 1.95824 2.19374 -1.38839
thorax -1.03888 1.15103 -2.18674
lowerneck -2.75631 7.28373 9.80141
upperneck -0.434133 9.39211 -4.10066
head 1.04625 4.64136 -2.7909
rclavicle -2.26118e-014 -8.74653e-015
rhumerus -36.6299 -1.85812 -87.005
rradius 33.7385
rwrist -18.1218
rhand -17.9855 0.443535
rfingers 7.12502
rthumb 8.28433 -29.374
lclavicle -2.26118e-014 -8.74653e-015
lhumerus -31.4367 0.675432 85.5348
lradius 28.9839
lwrist -2.52731
lhand -20.0751 10.7247
lfingers 7.12502
lthumb 6.26734 40.612
rfemur -2.0307 18.313 24.5104
rtibia 20.9383
rfoot -23.8829 -31.3691
rtoes -24.9738
lfemur -1.83108 -19.8578 -21.6701
ltibia 21.4849
lfoot -19.8616 25.4539
ltoes -7.59017
29
root 8.01841 15.5664 2.05792 177.952 1.87623 -179.392
lowerback 5.66496 1.52057 0.980951
upperback 1.95618 2.17483 -1.40628
thorax -1.07055 1.14165 -2.1355
lowerneck -3.17985 7.01542 9.54389
upperneck 0.225884 9.00105 -3.73884
head 1.27155 4.46042 -2.6136
rclavicle 1.13804e-014 1.39149e-014
rhumerus -36.6375 -1.80249 -87.0087
rradius 33.7249
rwrist -18.1448
rhand -18.0271 0.372597
rfingers 7.12502
rthumb 8.24419 -29.4466
lclavicle 1.13804e-014 1.39149e-014
lhumerus -31.4508 0.696222 85.54
lradius 28.979
lwrist -2.57282
lhand -20.1183 10.6669
lfingers 7.12502
lthumb 6.22565 40.5554
rfemur -2.06484 18.2694 24.4296
rtibia 21.0231
rfoot -23.3753 -31.5925
rtoes -26.269
lfemur -1.7805 -19.7664 -21.7558
ltibia 21.4282
lfoot -19.7745 25.3983
ltoes -7.70224
